<svg width="906" height="899" viewBox="0 0 906 899" fill="none" xmlns="http://www.w3.org/2000/svg">
<path d="M874 448.5C874 684.049 683.049 875 447.5 875C211.951 875 21 684.049 21 448.5C21 212.951 211.951 22 447.5 22C683.049 22 874 212.951 874 448.5ZM24.477 448.5C24.477 682.129 213.871 871.523 447.5 871.523C681.129 871.523 870.523 682.129 870.523 448.5C870.523 214.871 681.129 25.477 447.5 25.477C213.871 25.477 24.477 214.871 24.477 448.5Z" fill="#243038"/>
<circle cx="447" cy="875" r="24" fill="#243038"/>
<path d="M447.024 884.858C446.917 884.858 446.811 884.828 446.715 884.777L445.742 884.199C445.595 884.118 445.666 884.088 445.717 884.073C445.909 884.007 445.95 883.992 446.157 883.87C446.178 883.86 446.208 883.865 446.228 883.875L446.978 884.321C447.003 884.336 447.044 884.336 447.069 884.321L449.997 882.629C450.023 882.614 450.043 882.583 450.043 882.548V879.169C450.043 879.133 450.028 879.103 449.997 879.088L447.069 877.401C447.044 877.386 447.009 877.386 446.978 877.401L444.05 879.088C444.02 879.103 444.004 879.138 444.004 879.169V882.548C444.004 882.578 444.025 882.609 444.05 882.624L444.85 883.085C445.286 883.303 445.555 883.044 445.555 882.791V879.453C445.555 879.407 445.59 879.366 445.641 879.366H446.011C446.056 879.366 446.097 879.402 446.097 879.453V882.791C446.097 883.374 445.783 883.703 445.23 883.703C445.063 883.703 444.926 883.703 444.557 883.521L443.787 883.08C443.599 882.968 443.478 882.766 443.478 882.548V879.169C443.478 878.951 443.594 878.743 443.787 878.637L446.715 876.945C446.902 876.838 447.145 876.838 447.328 876.945L450.256 878.637C450.443 878.748 450.565 878.951 450.565 879.169V882.548C450.565 882.766 450.448 882.973 450.256 883.08L447.328 884.772C447.242 884.828 447.135 884.858 447.024 884.858ZM449.39 881.525C449.39 880.891 448.964 880.724 448.062 880.603C447.15 880.481 447.059 880.42 447.059 880.207C447.059 880.03 447.135 879.797 447.809 879.797C448.412 879.797 448.635 879.929 448.726 880.334C448.736 880.375 448.766 880.4 448.807 880.4H449.187C449.212 880.4 449.232 880.39 449.248 880.375C449.263 880.354 449.273 880.334 449.268 880.309C449.207 879.61 448.746 879.285 447.809 879.285C446.973 879.285 446.477 879.64 446.477 880.228C446.477 880.871 446.973 881.043 447.773 881.124C448.731 881.221 448.807 881.357 448.807 881.545C448.807 881.874 448.544 882.011 447.925 882.011C447.15 882.011 446.978 881.818 446.922 881.433C446.917 881.393 446.882 881.362 446.836 881.362H446.456C446.411 881.362 446.37 881.398 446.37 881.449C446.37 881.94 446.639 882.528 447.92 882.528C448.858 882.528 449.39 882.163 449.39 881.525ZM452.15 878.986C452.15 879.295 451.897 879.549 451.588 879.549C451.279 879.549 451.026 879.295 451.026 878.986C451.026 878.667 451.289 878.424 451.588 878.424C451.892 878.419 452.15 878.667 452.15 878.986ZM452.059 878.986C452.059 878.723 451.847 878.515 451.583 878.515C451.325 878.515 451.112 878.723 451.112 878.986C451.112 879.25 451.325 879.463 451.583 879.463C451.847 879.458 452.059 879.245 452.059 878.986ZM451.831 879.301H451.7C451.695 879.27 451.674 879.108 451.674 879.103C451.664 879.068 451.654 879.047 451.608 879.047H451.497V879.301H451.375V878.667H451.593C451.669 878.667 451.816 878.667 451.816 878.834C451.816 878.951 451.74 878.976 451.695 878.992C451.781 878.997 451.786 879.052 451.801 879.133C451.806 879.184 451.816 879.27 451.831 879.301ZM451.689 878.855C451.689 878.769 451.629 878.769 451.598 878.769H451.497V878.946H451.593C451.674 878.946 451.689 878.89 451.689 878.855ZM437.956 871.636C437.956 871.499 437.885 871.377 437.768 871.311L434.663 869.523C434.612 869.493 434.551 869.478 434.49 869.473H434.46C434.399 869.473 434.344 869.493 434.288 869.523L431.187 871.311C431.071 871.377 431 871.504 431 871.636L431.005 876.448C431.005 876.514 431.041 876.575 431.096 876.611C431.152 876.646 431.223 876.646 431.284 876.611L433.128 875.552C433.244 875.481 433.315 875.359 433.315 875.227V872.978C433.315 872.846 433.386 872.72 433.503 872.654L434.288 872.203C434.349 872.168 434.409 872.152 434.475 872.152C434.541 872.152 434.607 872.168 434.663 872.203L435.448 872.654C435.564 872.72 435.635 872.846 435.635 872.978V875.227C435.635 875.359 435.706 875.486 435.823 875.552L437.667 876.611C437.723 876.646 437.799 876.646 437.854 876.611C437.91 876.58 437.945 876.514 437.945 876.448L437.956 871.636ZM454.937 866.382V875.319C454.937 875.45 454.866 875.577 454.749 875.643L451.644 877.436C451.527 877.502 451.386 877.502 451.269 877.436L448.164 875.643C448.047 875.577 447.976 875.45 447.976 875.319V871.732C447.976 871.6 448.047 871.474 448.164 871.408L451.269 869.614C451.386 869.549 451.527 869.549 451.644 869.614L452.419 870.06C452.505 870.111 452.617 870.045 452.617 869.949V865.187C452.617 865.045 452.769 864.954 452.895 865.025L454.744 866.058C454.861 866.119 454.937 866.245 454.937 866.382ZM452.606 872.912C452.606 872.877 452.586 872.846 452.561 872.831L451.497 872.213C451.467 872.198 451.431 872.198 451.401 872.213L450.337 872.831C450.306 872.846 450.291 872.877 450.291 872.912V874.143C450.291 874.179 450.312 874.209 450.337 874.224L451.401 874.837C451.431 874.853 451.467 874.853 451.492 874.837L452.556 874.224C452.586 874.209 452.601 874.179 452.601 874.143V872.912H452.606ZM463.235 872.877C463.351 872.811 463.422 872.684 463.422 872.553V871.686C463.422 871.555 463.351 871.428 463.235 871.362L460.15 869.569C460.033 869.503 459.891 869.503 459.775 869.569L456.669 871.362C456.553 871.428 456.482 871.555 456.482 871.686V875.273C456.482 875.41 456.553 875.531 456.669 875.597L459.755 877.355C459.866 877.421 460.008 877.421 460.124 877.355L461.989 876.317C462.115 876.246 462.115 876.063 461.989 875.992L458.863 874.199C458.802 874.164 458.767 874.103 458.767 874.037V872.912C458.767 872.846 458.802 872.786 458.863 872.75L459.836 872.188C459.891 872.152 459.967 872.152 460.023 872.188L460.996 872.75C461.051 872.786 461.092 872.846 461.092 872.912V873.794C461.092 873.936 461.249 874.027 461.376 873.956L463.235 872.877ZM459.319 873.054C459.299 873.069 459.283 873.09 459.283 873.115V873.804C459.283 873.829 459.299 873.855 459.319 873.865L459.917 874.209C459.937 874.224 459.967 874.224 459.988 874.209L460.585 873.865C460.606 873.85 460.621 873.829 460.621 873.804V873.115C460.621 873.09 460.606 873.064 460.585 873.054L459.988 872.71C459.967 872.694 459.937 872.694 459.917 872.71L459.319 873.054ZM446.441 875.258V871.691C446.441 871.56 446.36 871.433 446.244 871.367L443.148 869.584C443.042 869.523 442.895 869.513 442.773 869.584L439.678 871.367C439.562 871.433 439.48 871.555 439.48 871.691V875.258C439.48 875.4 439.577 875.521 439.683 875.582L442.783 877.365C442.905 877.436 443.047 877.431 443.158 877.365L446.249 875.582C446.34 875.531 446.406 875.445 446.431 875.344C446.436 875.319 446.441 875.288 446.441 875.258ZM442.677 868.93L442.637 868.956H442.692L442.677 868.93ZM446.537 875.526L446.517 875.491V875.537L446.537 875.526Z" fill="#589B63"/>
<circle cx="27" cy="507" r="27" fill="#243038"/>
<path d="M22.6964 515.13C22.6964 515.233 22.5758 515.316 22.4238 515.316C22.2508 515.332 22.1302 515.249 22.1302 515.13C22.1302 515.027 22.2508 514.944 22.4028 514.944C22.5601 514.928 22.6964 515.011 22.6964 515.13ZM21.0661 514.897C21.0294 515.001 21.1343 515.12 21.2915 515.151C21.4278 515.202 21.5851 515.151 21.6165 515.047C21.648 514.944 21.5484 514.825 21.3911 514.778C21.2548 514.742 21.1028 514.794 21.0661 514.897ZM23.3831 514.809C23.231 514.846 23.1262 514.944 23.1419 515.063C23.1577 515.166 23.294 515.233 23.4512 515.197C23.6032 515.161 23.7081 515.063 23.6923 514.959C23.6766 514.861 23.5351 514.794 23.3831 514.809ZM26.8323 495C19.5617 495 14 500.443 14 507.614C14 513.346 17.6589 518.252 22.8851 519.979C23.556 520.098 23.7919 519.689 23.7919 519.353C23.7919 519.033 23.7762 517.265 23.7762 516.179C23.7762 516.179 20.1069 516.955 19.3363 514.639C19.3363 514.639 18.7387 513.135 17.879 512.747C17.879 512.747 16.6786 511.935 17.9629 511.951C17.9629 511.951 19.2681 512.054 19.9863 513.284C21.1343 515.28 23.0581 514.706 23.8077 514.365C23.9282 513.538 24.269 512.964 24.6464 512.623C21.7161 512.302 18.7597 511.884 18.7597 506.91C18.7597 505.489 19.1581 504.775 19.9968 503.866C19.8605 503.53 19.4149 502.144 20.1331 500.356C21.2286 500.02 23.75 501.751 23.75 501.751C24.7984 501.462 25.9254 501.312 27.0419 501.312C28.1585 501.312 29.2855 501.462 30.3339 501.751C30.3339 501.751 32.8552 500.014 33.9508 500.356C34.669 502.149 34.2234 503.53 34.0871 503.866C34.9258 504.781 35.4395 505.494 35.4395 506.91C35.4395 511.899 32.352 512.297 29.4218 512.623C29.904 513.031 30.3129 513.807 30.3129 515.021C30.3129 516.764 30.2972 518.919 30.2972 519.343C30.2972 519.679 30.5383 520.087 31.204 519.969C36.446 518.252 40 513.346 40 507.614C40 500.443 34.1028 495 26.8323 495ZM19.0952 512.83C19.027 512.881 19.0427 513 19.1319 513.098C19.2157 513.181 19.3363 513.217 19.4044 513.15C19.4726 513.098 19.4569 512.979 19.3677 512.881C19.2839 512.799 19.1633 512.762 19.0952 512.83ZM18.529 512.411C18.4923 512.478 18.5448 512.561 18.6496 512.612C18.7335 512.664 18.8383 512.649 18.875 512.576C18.9117 512.509 18.8593 512.426 18.7544 512.375C18.6496 512.344 18.5657 512.359 18.529 512.411ZM20.2274 514.251C20.1435 514.318 20.175 514.473 20.2956 514.572C20.4161 514.691 20.5681 514.706 20.6363 514.623C20.7044 514.556 20.673 514.401 20.5681 514.303C20.4528 514.184 20.2956 514.168 20.2274 514.251ZM19.6298 513.491C19.546 513.543 19.546 513.677 19.6298 513.796C19.7137 513.915 19.8552 513.967 19.9234 513.915C20.0073 513.848 20.0073 513.714 19.9234 513.595C19.85 513.476 19.7137 513.424 19.6298 513.491Z" fill="#589B63"/>
<circle cx="413" cy="24" r="24" fill="#243038"/>
<path d="M419.198 27.7782C419.847 27.3333 420.748 26.9482 420.748 26.9482C420.748 26.9482 418.185 27.413 415.635 27.6255C412.516 27.8845 409.165 27.9376 407.483 27.7118C403.502 27.1806 409.668 25.713 409.668 25.713C409.668 25.713 407.277 25.5537 404.33 26.9747C400.853 28.6614 412.94 29.4317 419.198 27.7782ZM413.543 25.6466C412.284 22.8111 408.039 20.3209 413.543 15.9647C420.408 10.5328 416.887 7 416.887 7C418.311 12.6113 411.88 14.3112 409.556 17.7975C407.973 20.1815 410.33 22.7381 413.543 25.6466ZM421.132 13.946C421.139 13.946 409.529 16.8546 415.072 23.256C416.708 25.1419 414.642 26.8419 414.642 26.8419C414.642 26.8419 418.794 24.6904 416.887 22.001C415.106 19.4908 413.741 18.2424 421.132 13.946ZM420.728 31.9087C420.692 31.9719 420.648 32.03 420.596 32.0813C429.093 29.8434 425.967 24.1857 421.907 25.6201C421.688 25.7009 421.498 25.8468 421.364 26.0384C421.601 25.9524 421.845 25.8858 422.093 25.8392C424.146 25.4076 427.093 28.595 420.728 31.9087ZM423.852 36.0457C423.852 36.0457 424.812 36.8359 422.799 37.4535C418.964 38.6156 406.851 38.9675 403.486 37.5C402.275 36.9754 404.546 36.2383 405.261 36.0856C406.003 35.9262 406.434 35.9527 406.434 35.9527C405.089 35.0031 397.738 37.8187 402.698 38.6222C416.225 40.8269 427.362 37.6328 423.852 36.0457ZM409.046 33.2965C403.834 34.7574 412.218 37.7722 418.854 34.9235C418.207 34.6713 417.582 34.3648 416.986 34.0071C414.026 34.5715 412.655 34.6114 409.966 34.3059C407.748 34.0535 409.046 33.2965 409.046 33.2965ZM420.953 39.7511C415.741 40.7339 409.311 40.621 405.502 39.9902C405.502 39.9835 406.284 40.6343 410.297 40.8933C416.404 41.2851 425.781 40.6742 426 37.7789C426 37.7789 425.576 38.8746 420.953 39.7511ZM418.066 30.4411C414.145 31.1981 411.874 31.1782 409.006 30.8794C406.787 30.647 408.238 29.5712 408.238 29.5712C402.489 31.4837 411.43 33.6485 419.463 31.2911C418.944 31.1073 418.468 30.8179 418.066 30.4411Z" fill="#589B63"/>
<circle cx="874" cy="439" r="32" fill="#243038"/>
<path d="M890.395 434.412C889.828 432.135 888.752 430.419 886.462 430.419H883.508V433.911C883.508 436.621 881.21 438.905 878.588 438.905H870.721C868.57 438.905 866.787 440.746 866.787 442.904V450.403C866.787 452.539 868.644 453.791 870.721 454.402C873.21 455.132 875.604 455.264 878.588 454.402C880.569 453.828 882.521 452.671 882.521 450.403V447.405H874.662V446.403H886.462C888.752 446.403 889.599 444.805 890.395 442.411C891.22 439.943 891.183 437.571 890.395 434.412ZM879.081 449.401C879.899 449.401 880.562 450.071 880.562 450.896C880.562 451.729 879.899 452.399 879.081 452.399C878.271 452.399 877.601 451.721 877.601 450.896C877.608 450.064 878.271 449.401 879.081 449.401ZM870.36 437.918H878.227C880.414 437.918 882.16 436.113 882.16 433.918V426.412C882.16 424.276 880.363 422.678 878.227 422.317C875.59 421.882 872.724 421.904 870.36 422.324C867.031 422.913 866.427 424.144 866.427 426.42V429.417H874.301V430.419H863.473C861.182 430.419 859.179 431.797 858.552 434.412C857.831 437.409 857.801 439.28 858.552 442.411C859.112 444.738 860.446 446.403 862.736 446.403H865.44V442.809C865.44 440.208 867.686 437.918 870.36 437.918ZM869.866 427.414C869.049 427.414 868.386 426.744 868.386 425.919C868.393 425.086 869.049 424.416 869.866 424.416C870.677 424.416 871.347 425.094 871.347 425.919C871.347 426.744 870.684 427.414 869.866 427.414Z" fill="#589B63"/>
</svg>
