<svg width="1231" height="1231" viewBox="0 0 1231 1231" fill="none" xmlns="http://www.w3.org/2000/svg">
<path d="M1231 615.5C1231 955.431 955.431 1231 615.5 1231C275.569 1231 0 955.431 0 615.5C0 275.569 275.569 0 615.5 0C955.431 0 1231 275.569 1231 615.5ZM5.01788 615.5C5.01788 952.66 278.34 1225.98 615.5 1225.98C952.66 1225.98 1225.98 952.66 1225.98 615.5C1225.98 278.34 952.66 5.01788 615.5 5.01788C278.34 5.01788 5.01788 278.34 5.01788 615.5Z" fill="#243038"/>
<circle cx="144" cy="1007" r="24" fill="#243038"/>
<path d="M137.932 1001.36C137.275 1000.67 136.168 1000.63 135.459 1001.27L130.559 1005.74C130.202 1006.07 130 1006.52 130 1007C130 1007.48 130.202 1007.93 130.559 1008.26L135.459 1012.73C135.796 1013.04 136.223 1013.19 136.649 1013.19C137.119 1013.19 137.588 1013 137.932 1012.64C138.59 1011.94 138.549 1010.86 137.841 1010.21L134.322 1007L137.841 1003.79C138.549 1003.14 138.59 1002.06 137.932 1001.36ZM157.441 1005.74L152.541 1001.27C151.833 1000.63 150.725 1000.67 150.068 1001.36C149.41 1002.06 149.451 1003.14 150.159 1003.79L153.678 1007L150.159 1010.21C149.451 1010.86 149.41 1011.94 150.068 1012.64C150.412 1013 150.881 1013.19 151.351 1013.19C151.777 1013.19 152.204 1013.04 152.541 1012.73L157.441 1008.26C157.798 1007.93 158 1007.48 158 1007C158 1006.52 157.798 1006.07 157.441 1005.74ZM146.889 996.055C145.958 995.818 144.999 996.369 144.756 997.288L139.856 1015.85C139.613 1016.77 140.175 1017.71 141.111 1017.94C141.258 1017.98 141.406 1018 141.551 1018C142.329 1018 143.04 1017.49 143.244 1016.71L148.144 998.15C148.387 997.231 147.825 996.293 146.889 996.055Z" fill="#589B63"/>
<circle cx="948" cy="1138" r="28" fill="#243038"/>
<path d="M947.994 1153.25C947.574 1153.25 947.148 1153.14 946.778 1152.92L942.911 1150.63C942.335 1150.31 942.617 1150.2 942.805 1150.13C943.576 1149.86 943.732 1149.81 944.553 1149.34C944.641 1149.29 944.754 1149.31 944.842 1149.36L947.812 1151.12C947.919 1151.19 948.069 1151.19 948.169 1151.12L959.744 1144.44C959.85 1144.38 959.919 1144.26 959.919 1144.13V1130.77C959.919 1130.64 959.85 1130.52 959.738 1130.45L948.169 1123.78C948.063 1123.71 947.919 1123.71 947.812 1123.78L936.25 1130.46C936.137 1130.52 936.068 1130.64 936.068 1130.78V1144.13C936.068 1144.26 936.137 1144.38 936.25 1144.44L939.421 1146.27C941.144 1147.13 942.197 1146.12 942.197 1145.1V1131.91C942.197 1131.72 942.347 1131.58 942.535 1131.58H944.002C944.184 1131.58 944.34 1131.72 944.34 1131.91V1145.1C944.34 1147.39 943.087 1148.71 940.912 1148.71C940.242 1148.71 939.715 1148.71 938.249 1147.98L935.216 1146.24C934.464 1145.8 934 1144.99 934 1144.12V1130.77C934 1129.9 934.464 1129.09 935.216 1128.66L946.778 1121.98C947.511 1121.56 948.483 1121.56 949.209 1121.98L960.784 1128.66C961.536 1129.1 962 1129.9 962 1130.78V1144.13C962 1144.99 961.536 1145.8 960.784 1146.24L949.209 1152.92C948.84 1153.14 948.42 1153.25 947.994 1153.25ZM957.338 1140.08C957.338 1137.58 955.645 1136.92 952.092 1136.45C948.495 1135.97 948.132 1135.73 948.132 1134.89C948.132 1134.19 948.439 1133.26 951.102 1133.26C953.477 1133.26 954.355 1133.78 954.718 1135.38C954.749 1135.53 954.887 1135.64 955.044 1135.64H956.548C956.642 1135.64 956.73 1135.61 956.792 1135.54C956.855 1135.47 956.886 1135.38 956.88 1135.28C956.648 1132.52 954.812 1131.23 951.102 1131.23C947.799 1131.23 945.832 1132.62 945.832 1134.96C945.832 1137.49 947.793 1138.2 950.958 1138.51C954.749 1138.88 955.044 1139.44 955.044 1140.18C955.044 1141.47 954.004 1142.02 951.566 1142.02C948.501 1142.02 947.831 1141.25 947.605 1139.73C947.58 1139.57 947.442 1139.45 947.273 1139.45H945.775C945.587 1139.45 945.443 1139.6 945.443 1139.78C945.443 1141.73 946.502 1144.05 951.572 1144.05C955.232 1144.05 957.338 1142.6 957.338 1140.08Z" fill="#589B63"/>
<circle cx="1028" cy="159" r="30" fill="#243038"/>
<path d="M1028.03 171.322C1027.9 171.322 1027.76 171.284 1027.64 171.221L1026.43 170.499C1026.24 170.398 1026.33 170.36 1026.4 170.341C1026.64 170.259 1026.69 170.24 1026.95 170.088C1026.97 170.075 1027.01 170.081 1027.04 170.094L1027.97 170.651C1028 170.67 1028.05 170.67 1028.09 170.651L1031.75 168.536C1031.78 168.517 1031.8 168.479 1031.8 168.435V164.211C1031.8 164.167 1031.78 164.129 1031.75 164.11L1028.09 162.001C1028.05 161.982 1028.01 161.982 1027.97 162.001L1024.31 164.11C1024.27 164.129 1024.26 164.173 1024.26 164.211V168.435C1024.26 168.473 1024.28 168.511 1024.31 168.53L1025.31 169.106C1025.86 169.378 1026.19 169.055 1026.19 168.739V164.566C1026.19 164.509 1026.24 164.458 1026.3 164.458H1026.76C1026.82 164.458 1026.87 164.502 1026.87 164.566V168.739C1026.87 169.467 1026.48 169.879 1025.79 169.879C1025.58 169.879 1025.41 169.879 1024.95 169.651L1023.98 169.1C1023.75 168.96 1023.6 168.707 1023.6 168.435V164.211C1023.6 163.939 1023.74 163.679 1023.98 163.546L1027.64 161.431C1027.88 161.298 1028.18 161.298 1028.41 161.431L1032.07 163.546C1032.3 163.685 1032.46 163.939 1032.46 164.211V168.435C1032.46 168.707 1032.31 168.967 1032.07 169.1L1028.41 171.215C1028.3 171.284 1028.17 171.322 1028.03 171.322ZM1030.99 167.156C1030.99 166.364 1030.45 166.155 1029.33 166.003C1028.19 165.851 1028.07 165.775 1028.07 165.509C1028.07 165.288 1028.17 164.996 1029.01 164.996C1029.76 164.996 1030.04 165.161 1030.16 165.668C1030.17 165.718 1030.21 165.75 1030.26 165.75H1030.73C1030.77 165.75 1030.79 165.737 1030.81 165.718C1030.83 165.693 1030.84 165.668 1030.83 165.636C1030.76 164.762 1030.18 164.357 1029.01 164.357C1027.97 164.357 1027.35 164.8 1027.35 165.535C1027.35 166.339 1027.97 166.554 1028.97 166.655C1030.16 166.776 1030.26 166.947 1030.26 167.181C1030.26 167.593 1029.93 167.764 1029.16 167.764C1028.19 167.764 1027.97 167.523 1027.9 167.042C1027.9 166.991 1027.85 166.953 1027.8 166.953H1027.32C1027.26 166.953 1027.21 166.997 1027.21 167.061C1027.21 167.675 1027.55 168.409 1029.15 168.409C1030.32 168.409 1030.99 167.954 1030.99 167.156ZM1034.44 163.983C1034.44 164.369 1034.12 164.686 1033.74 164.686C1033.35 164.686 1033.03 164.369 1033.03 163.983C1033.03 163.584 1033.36 163.28 1033.74 163.28C1034.12 163.274 1034.44 163.584 1034.44 163.983ZM1034.32 163.983C1034.32 163.654 1034.06 163.394 1033.73 163.394C1033.41 163.394 1033.14 163.654 1033.14 163.983C1033.14 164.312 1033.41 164.578 1033.73 164.578C1034.06 164.572 1034.32 164.306 1034.32 163.983ZM1034.04 164.376H1033.87C1033.87 164.338 1033.84 164.135 1033.84 164.129C1033.83 164.084 1033.82 164.059 1033.76 164.059H1033.62V164.376H1033.47V163.584H1033.74C1033.84 163.584 1034.02 163.584 1034.02 163.793C1034.02 163.939 1033.93 163.97 1033.87 163.989C1033.98 163.996 1033.98 164.065 1034 164.167C1034.01 164.23 1034.02 164.338 1034.04 164.376ZM1033.86 163.818C1033.86 163.711 1033.79 163.711 1033.75 163.711H1033.62V163.932H1033.74C1033.84 163.932 1033.86 163.863 1033.86 163.818ZM1016.69 154.795C1016.69 154.624 1016.61 154.472 1016.46 154.389L1012.58 152.154C1012.52 152.116 1012.44 152.097 1012.36 152.091H1012.33C1012.25 152.091 1012.18 152.116 1012.11 152.154L1008.23 154.389C1008.09 154.472 1008 154.63 1008 154.795L1008.01 160.81C1008.01 160.893 1008.05 160.969 1008.12 161.013C1008.19 161.057 1008.28 161.057 1008.35 161.013L1010.66 159.69C1010.81 159.601 1010.89 159.449 1010.89 159.284V156.473C1010.89 156.308 1010.98 156.15 1011.13 156.067L1012.11 155.504C1012.19 155.46 1012.26 155.441 1012.34 155.441C1012.43 155.441 1012.51 155.46 1012.58 155.504L1013.56 156.067C1013.71 156.15 1013.79 156.308 1013.79 156.473V159.284C1013.79 159.449 1013.88 159.607 1014.03 159.69L1016.33 161.013C1016.4 161.057 1016.5 161.057 1016.57 161.013C1016.64 160.975 1016.68 160.893 1016.68 160.81L1016.69 154.795ZM1037.92 148.228V159.398C1037.92 159.563 1037.83 159.721 1037.69 159.804L1033.8 162.045C1033.66 162.128 1033.48 162.128 1033.34 162.045L1029.45 159.804C1029.31 159.721 1029.22 159.563 1029.22 159.398V154.915C1029.22 154.75 1029.31 154.592 1029.45 154.51L1033.34 152.268C1033.48 152.186 1033.66 152.186 1033.8 152.268L1034.77 152.825C1034.88 152.889 1035.02 152.806 1035.02 152.686V146.733C1035.02 146.556 1035.21 146.442 1035.37 146.531L1037.68 147.823C1037.83 147.899 1037.92 148.057 1037.92 148.228ZM1035.01 156.39C1035.01 156.346 1034.98 156.308 1034.95 156.289L1033.62 155.517C1033.58 155.498 1033.54 155.498 1033.5 155.517L1032.17 156.289C1032.13 156.308 1032.11 156.346 1032.11 156.39V157.929C1032.11 157.974 1032.14 158.012 1032.17 158.031L1033.5 158.797C1033.54 158.816 1033.58 158.816 1033.61 158.797L1034.94 158.031C1034.98 158.012 1035 157.974 1035 157.929V156.39H1035.01ZM1048.29 156.346C1048.44 156.264 1048.53 156.105 1048.53 155.941V154.858C1048.53 154.693 1048.44 154.535 1048.29 154.453L1044.44 152.211C1044.29 152.129 1044.11 152.129 1043.97 152.211L1040.09 154.453C1039.94 154.535 1039.85 154.693 1039.85 154.858V159.341C1039.85 159.512 1039.94 159.664 1040.09 159.747L1043.94 161.944C1044.08 162.026 1044.26 162.026 1044.41 161.944L1046.74 160.646C1046.89 160.557 1046.89 160.329 1046.74 160.241L1042.83 157.999C1042.75 157.955 1042.71 157.879 1042.71 157.796V156.39C1042.71 156.308 1042.75 156.232 1042.83 156.188L1044.04 155.485C1044.11 155.441 1044.21 155.441 1044.28 155.485L1045.49 156.188C1045.56 156.232 1045.61 156.308 1045.61 156.39V157.492C1045.61 157.67 1045.81 157.784 1045.97 157.695L1048.29 156.346ZM1043.4 156.568C1043.37 156.587 1043.35 156.612 1043.35 156.644V157.505C1043.35 157.537 1043.37 157.568 1043.4 157.581L1044.15 158.012C1044.17 158.031 1044.21 158.031 1044.23 158.012L1044.98 157.581C1045.01 157.562 1045.03 157.537 1045.03 157.505V156.644C1045.03 156.612 1045.01 156.58 1044.98 156.568L1044.23 156.137C1044.21 156.118 1044.17 156.118 1044.15 156.137L1043.4 156.568ZM1027.3 159.322V154.864C1027.3 154.7 1027.2 154.541 1027.05 154.459L1023.19 152.23C1023.05 152.154 1022.87 152.141 1022.72 152.23L1018.85 154.459C1018.7 154.541 1018.6 154.693 1018.6 154.864V159.322C1018.6 159.5 1018.72 159.652 1018.85 159.728L1022.73 161.957C1022.88 162.045 1023.06 162.039 1023.2 161.957L1027.06 159.728C1027.17 159.664 1027.26 159.557 1027.29 159.43C1027.3 159.398 1027.3 159.36 1027.3 159.322ZM1022.6 151.413L1022.55 151.445H1022.62L1022.6 151.413ZM1027.42 159.658L1027.4 159.614V159.671L1027.42 159.658Z" fill="#589B63"/>
<circle cx="152" cy="213" r="31" fill="#243038"/>
<path d="M137 197L139.817 228.805L152.46 233L165.183 228.805L168 197H137ZM161.881 207.278H147.043L147.374 211.247H161.55L160.452 223.172L152.548 225.342V225.366H152.46L144.492 223.172L144.007 217.081H147.858L148.141 220.143L152.46 221.308L156.795 220.143L157.279 215.145H143.805L142.772 203.445H162.236L161.881 207.278Z" fill="#589B63"/>
</svg>
