<svg width="406" height="397" viewBox="0 0 406 397" fill="none" xmlns="http://www.w3.org/2000/svg">
<path d="M406 196.5C406 305.024 318.024 393 209.5 393C100.976 393 13 305.024 13 196.5C13 87.976 100.976 0 209.5 0C318.024 0 406 87.976 406 196.5ZM14.602 196.5C14.602 304.139 101.861 391.398 209.5 391.398C317.139 391.398 404.398 304.139 404.398 196.5C404.398 88.8608 317.139 1.60196 209.5 1.60196C101.861 1.60196 14.602 88.8608 14.602 196.5Z" fill="#243038"/>
<circle cx="353" cy="70" r="28" fill="#243038"/>
<path d="M352.994 85.2481C352.574 85.2481 352.148 85.1353 351.778 84.9222L347.911 82.6348C347.335 82.309 347.617 82.1962 347.805 82.1335C348.576 81.864 348.732 81.8076 349.553 81.3376C349.641 81.2875 349.754 81.3063 349.842 81.3627L352.812 83.1237C352.919 83.1863 353.069 83.1863 353.169 83.1237L364.744 76.4433C364.85 76.3806 364.919 76.2553 364.919 76.1299V62.7691C364.919 62.6375 364.85 62.5185 364.738 62.4495L353.169 55.7754C353.063 55.7127 352.919 55.7127 352.812 55.7754L341.25 62.4558C341.137 62.5185 341.068 62.6438 341.068 62.7754V76.1299C341.068 76.2553 341.137 76.3806 341.25 76.437L344.421 78.2669C346.144 79.1254 347.197 78.1165 347.197 77.095V63.9097C347.197 63.7217 347.347 63.5775 347.535 63.5775H349.002C349.184 63.5775 349.34 63.7217 349.34 63.9097V77.1013C349.34 79.3949 348.087 80.7109 345.912 80.7109C345.242 80.7109 344.715 80.7109 343.249 79.984L340.216 78.2356C339.464 77.8032 339 76.9947 339 76.1237V62.7691C339 61.9043 339.464 61.0896 340.216 60.6572L351.778 53.9768C352.511 53.5632 353.483 53.5632 354.209 53.9768L365.784 60.6635C366.536 61.0959 367 61.9043 367 62.7754V76.1299C367 76.9947 366.536 77.8032 365.784 78.2418L354.209 84.9222C353.84 85.1353 353.42 85.2481 352.994 85.2481ZM362.338 72.0816C362.338 69.5811 360.645 68.9168 357.092 68.4468C353.495 67.9706 353.132 67.7262 353.132 66.8864C353.132 66.1908 353.439 65.2633 356.102 65.2633C358.477 65.2633 359.355 65.7772 359.718 67.3815C359.749 67.5319 359.887 67.6447 360.044 67.6447H361.548C361.642 67.6447 361.73 67.6071 361.792 67.5382C361.855 67.4692 361.886 67.3752 361.88 67.2812C361.648 64.5176 359.812 63.2329 356.102 63.2329C352.799 63.2329 350.832 64.6241 350.832 66.9616C350.832 69.4934 352.793 70.1953 355.958 70.5086C359.749 70.8784 360.044 71.4361 360.044 72.1818C360.044 73.4728 359.004 74.0243 356.566 74.0243C353.501 74.0243 352.831 73.2535 352.605 71.7306C352.58 71.5677 352.442 71.4486 352.273 71.4486H350.775C350.587 71.4486 350.443 71.599 350.443 71.7808C350.443 73.7297 351.502 76.0547 356.572 76.0547C360.232 76.0485 362.338 74.6008 362.338 72.0816Z" fill="#589B63"/>
<circle cx="301" cy="373" r="24" fill="#243038"/>
<path d="M294.932 367.362C294.275 366.666 293.168 366.626 292.459 367.272L287.559 371.741C287.202 372.066 287 372.522 287 373C287 373.478 287.202 373.935 287.559 374.26L292.459 378.728C292.796 379.036 293.223 379.188 293.649 379.188C294.119 379.188 294.588 379.004 294.932 378.638C295.59 377.943 295.549 376.855 294.841 376.209L291.322 373L294.841 369.791C295.549 369.145 295.59 368.057 294.932 367.362ZM314.441 371.741L309.541 367.272C308.833 366.626 307.725 366.666 307.068 367.362C306.41 368.057 306.451 369.145 307.159 369.791L310.678 373L307.159 376.209C306.451 376.855 306.41 377.943 307.068 378.638C307.412 379.004 307.881 379.188 308.351 379.188C308.777 379.188 309.204 379.036 309.541 378.728L314.441 374.26C314.798 373.935 315 373.478 315 373C315 372.522 314.798 372.066 314.441 371.741ZM303.889 362.055C302.958 361.818 301.999 362.369 301.756 363.288L296.856 381.85C296.613 382.769 297.175 383.707 298.111 383.945C298.258 383.983 298.406 384 298.551 384C299.329 384 300.04 383.487 300.244 382.712L305.144 364.15C305.387 363.231 304.825 362.293 303.889 362.055Z" fill="#589B63"/>
<circle cx="24" cy="158" r="24" fill="#243038"/>
<path d="M24.0237 167.858C23.9173 167.858 23.8109 167.828 23.7147 167.777L22.742 167.199C22.5951 167.118 22.666 167.088 22.7167 167.073C22.9092 167.007 22.9497 166.992 23.1574 166.87C23.1777 166.86 23.2081 166.865 23.2284 166.875L23.9781 167.321C24.0035 167.336 24.044 167.336 24.0693 167.321L26.9975 165.629C27.0228 165.614 27.043 165.583 27.043 165.548V162.169C27.043 162.133 27.0278 162.103 26.9975 162.088L24.0693 160.401C24.044 160.386 24.0085 160.386 23.9781 160.401L21.05 162.088C21.0196 162.103 21.0044 162.138 21.0044 162.169V165.548C21.0044 165.578 21.0247 165.609 21.05 165.624L21.8504 166.085C22.2861 166.303 22.5546 166.044 22.5546 165.791V162.453C22.5546 162.407 22.59 162.366 22.6407 162.366H23.0105C23.0561 162.366 23.0966 162.402 23.0966 162.453V165.791C23.0966 166.374 22.7826 166.703 22.2304 166.703C22.0632 166.703 21.9264 166.703 21.5566 166.521L20.7866 166.08C20.5991 165.968 20.4775 165.766 20.4775 165.548V162.169C20.4775 161.951 20.594 161.743 20.7866 161.637L23.7147 159.945C23.9021 159.838 24.1453 159.838 24.3277 159.945L27.2558 161.637C27.4433 161.748 27.5648 161.951 27.5648 162.169V165.548C27.5648 165.766 27.4483 165.973 27.2558 166.08L24.3277 167.772C24.2416 167.828 24.1352 167.858 24.0237 167.858ZM26.3895 164.525C26.3895 163.891 25.964 163.724 25.0622 163.603C24.1504 163.481 24.0592 163.42 24.0592 163.207C24.0592 163.03 24.1352 162.797 24.8089 162.797C25.4118 162.797 25.6347 162.929 25.7259 163.334C25.736 163.375 25.7664 163.4 25.8069 163.4H26.1869C26.2122 163.4 26.2325 163.39 26.2477 163.375C26.2629 163.354 26.273 163.334 26.268 163.309C26.2072 162.61 25.7462 162.285 24.8089 162.285C23.9731 162.285 23.4766 162.64 23.4766 163.228C23.4766 163.871 23.9731 164.043 24.7735 164.124C25.731 164.221 25.8069 164.357 25.8069 164.545C25.8069 164.874 25.5435 165.011 24.9255 165.011C24.1504 165.011 23.9781 164.818 23.9224 164.433C23.9173 164.393 23.8819 164.362 23.8363 164.362H23.4563C23.4107 164.362 23.3702 164.398 23.3702 164.449C23.3702 164.94 23.6387 165.528 24.9204 165.528C25.8576 165.528 26.3895 165.163 26.3895 164.525ZM29.1505 161.986C29.1505 162.295 28.8972 162.549 28.5882 162.549C28.2791 162.549 28.0258 162.295 28.0258 161.986C28.0258 161.667 28.2893 161.424 28.5882 161.424C28.8921 161.419 29.1505 161.667 29.1505 161.986ZM29.0593 161.986C29.0593 161.723 28.8465 161.515 28.5831 161.515C28.3247 161.515 28.112 161.723 28.112 161.986C28.112 162.25 28.3247 162.463 28.5831 162.463C28.8465 162.458 29.0593 162.245 29.0593 161.986ZM28.8313 162.301H28.6996C28.6946 162.27 28.6743 162.108 28.6743 162.103C28.6642 162.068 28.654 162.047 28.6084 162.047H28.497V162.301H28.3754V161.667H28.5932C28.6692 161.667 28.8161 161.667 28.8161 161.834C28.8161 161.951 28.7402 161.976 28.6946 161.992C28.7807 161.997 28.7857 162.052 28.8009 162.133C28.806 162.184 28.8161 162.27 28.8313 162.301ZM28.6895 161.855C28.6895 161.769 28.6287 161.769 28.5983 161.769H28.497V161.946H28.5932C28.6743 161.946 28.6895 161.89 28.6895 161.855ZM14.9556 154.636C14.9556 154.499 14.8847 154.377 14.7682 154.311L11.6627 152.523C11.612 152.493 11.5513 152.478 11.4905 152.473H11.4601C11.3993 152.473 11.3436 152.493 11.2878 152.523L8.18744 154.311C8.07092 154.377 8 154.504 8 154.636L8.00507 159.448C8.00507 159.514 8.04053 159.575 8.09625 159.611C8.15198 159.646 8.2229 159.646 8.2837 159.611L10.1277 158.552C10.2442 158.481 10.3152 158.359 10.3152 158.227V155.978C10.3152 155.846 10.3861 155.72 10.5026 155.654L11.2878 155.203C11.3486 155.168 11.4094 155.152 11.4753 155.152C11.5411 155.152 11.607 155.168 11.6627 155.203L12.4479 155.654C12.5645 155.72 12.6354 155.846 12.6354 155.978V158.227C12.6354 158.359 12.7063 158.486 12.8228 158.552L14.6668 159.611C14.7226 159.646 14.7986 159.646 14.8543 159.611C14.91 159.58 14.9455 159.514 14.9455 159.448L14.9556 154.636ZM31.9368 149.382V158.319C31.9368 158.45 31.8659 158.577 31.7493 158.643L28.6439 160.436C28.5274 160.502 28.3855 160.502 28.269 160.436L25.1636 158.643C25.047 158.577 24.9761 158.45 24.9761 158.319V154.732C24.9761 154.6 25.047 154.474 25.1636 154.408L28.269 152.614C28.3855 152.549 28.5274 152.549 28.6439 152.614L29.419 153.06C29.5051 153.111 29.6166 153.045 29.6166 152.949V148.187C29.6166 148.045 29.7685 147.954 29.8952 148.025L31.7443 149.058C31.8608 149.119 31.9368 149.245 31.9368 149.382ZM29.6064 155.912C29.6064 155.877 29.5862 155.846 29.5608 155.831L28.497 155.213C28.4666 155.198 28.4311 155.198 28.4007 155.213L27.3369 155.831C27.3065 155.846 27.2913 155.877 27.2913 155.912V157.143C27.2913 157.179 27.3115 157.209 27.3369 157.224L28.4007 157.837C28.4311 157.853 28.4666 157.853 28.4919 157.837L29.5558 157.224C29.5862 157.209 29.6014 157.179 29.6014 157.143V155.912H29.6064ZM40.2349 155.877C40.3514 155.811 40.4223 155.684 40.4223 155.553V154.686C40.4223 154.555 40.3514 154.428 40.2349 154.362L37.1497 152.569C37.0332 152.503 36.8913 152.503 36.7748 152.569L33.6694 154.362C33.5528 154.428 33.4819 154.555 33.4819 154.686V158.273C33.4819 158.41 33.5528 158.531 33.6694 158.597L36.7545 160.355C36.866 160.421 37.0078 160.421 37.1244 160.355L38.9886 159.317C39.1153 159.246 39.1153 159.063 38.9886 158.992L35.8629 157.199C35.8021 157.164 35.7667 157.103 35.7667 157.037V155.912C35.7667 155.846 35.8021 155.786 35.8629 155.75L36.8356 155.188C36.8913 155.152 36.9673 155.152 37.023 155.188L37.9957 155.75C38.0514 155.786 38.092 155.846 38.092 155.912V156.794C38.092 156.936 38.249 157.027 38.3757 156.956L40.2349 155.877ZM36.3189 156.054C36.2986 156.069 36.2834 156.09 36.2834 156.115V156.804C36.2834 156.829 36.2986 156.855 36.3189 156.865L36.9167 157.209C36.9369 157.224 36.9673 157.224 36.9876 157.209L37.5854 156.865C37.6056 156.85 37.6208 156.829 37.6208 156.804V156.115C37.6208 156.09 37.6056 156.064 37.5854 156.054L36.9876 155.71C36.9673 155.694 36.9369 155.694 36.9167 155.71L36.3189 156.054ZM23.4411 158.258V154.691C23.4411 154.56 23.3601 154.433 23.2436 154.367L20.1482 152.584C20.0419 152.523 19.8949 152.513 19.7734 152.584L16.678 154.367C16.5615 154.433 16.4805 154.555 16.4805 154.691V158.258C16.4805 158.4 16.5767 158.521 16.6831 158.582L19.7835 160.365C19.9051 160.436 20.0469 160.431 20.1584 160.365L23.2486 158.582C23.3398 158.531 23.4057 158.445 23.431 158.344C23.4361 158.319 23.4411 158.288 23.4411 158.258ZM19.6771 151.93L19.6366 151.956H19.6923L19.6771 151.93ZM23.5374 158.526L23.5171 158.491V158.537L23.5374 158.526Z" fill="#589B63"/>
<path d="M230.92 185.414C230.198 185.173 229.476 184.946 228.753 184.732C228.874 184.237 228.981 183.742 229.088 183.248C230.732 175.278 229.649 168.873 225.999 166.761C222.482 164.741 216.746 166.841 210.943 171.895C210.368 172.39 209.806 172.911 209.271 173.433C208.91 173.085 208.536 172.738 208.161 172.403C202.077 167.001 195.98 164.728 192.329 166.854C188.826 168.887 187.783 174.917 189.254 182.459C189.401 183.207 189.562 183.943 189.749 184.692C188.893 184.932 188.051 185.2 187.262 185.481C180.121 187.954 175 191.859 175 195.897C175 200.069 180.456 204.254 187.877 206.795C188.478 206.995 189.08 207.196 189.695 207.37C189.495 208.172 189.321 208.961 189.16 209.777C187.756 217.198 188.853 223.081 192.356 225.1C195.967 227.186 202.037 225.047 207.947 219.872C208.415 219.458 208.883 219.03 209.351 218.575C209.94 219.15 210.555 219.698 211.17 220.233C216.893 225.154 222.549 227.146 226.039 225.127C229.649 223.041 230.826 216.716 229.302 209.014C229.181 208.426 229.048 207.824 228.901 207.209C229.328 207.089 229.743 206.955 230.157 206.822C237.873 204.268 243.462 200.136 243.462 195.897C243.462 191.845 238.194 187.914 230.92 185.414ZM212.828 174.061C217.802 169.729 222.442 168.031 224.555 169.248C226.815 170.545 227.684 175.786 226.266 182.673C226.173 183.127 226.079 183.568 225.959 184.01C222.99 183.341 219.982 182.86 216.96 182.592C215.222 180.105 213.323 177.725 211.264 175.492C211.785 174.997 212.293 174.529 212.828 174.061ZM197.357 202.837C198.039 204 198.734 205.163 199.47 206.3C197.384 206.073 195.311 205.738 193.265 205.297C193.854 203.372 194.589 201.379 195.445 199.347C196.06 200.524 196.689 201.687 197.357 202.837ZM193.306 186.751C195.231 186.323 197.277 185.975 199.403 185.708C198.694 186.818 197.999 187.954 197.344 189.104C196.689 190.241 196.047 191.404 195.445 192.581C194.603 190.589 193.894 188.636 193.306 186.751ZM196.969 195.964C197.852 194.119 198.815 192.313 199.831 190.535C200.847 188.757 201.944 187.032 203.094 185.334C205.099 185.186 207.145 185.106 209.231 185.106C211.317 185.106 213.376 185.186 215.369 185.334C216.505 187.018 217.588 188.743 218.618 190.508C219.647 192.273 220.61 194.079 221.519 195.91C220.624 197.756 219.661 199.574 218.631 201.366C217.615 203.144 216.532 204.869 215.395 206.581C213.403 206.728 211.33 206.795 209.231 206.795C207.132 206.795 205.099 206.728 203.134 206.608C201.97 204.909 200.874 203.171 199.844 201.393C198.815 199.614 197.865 197.809 196.969 195.964ZM221.118 202.81C221.8 201.633 222.442 200.443 223.071 199.24C223.926 201.179 224.675 203.144 225.33 205.163C223.258 205.631 221.158 205.993 219.046 206.233C219.768 205.11 220.45 203.96 221.118 202.81ZM223.044 192.581C222.415 191.404 221.774 190.228 221.105 189.078C220.45 187.941 219.768 186.818 219.059 185.708C221.212 185.975 223.271 186.336 225.197 186.778C224.582 188.757 223.86 190.682 223.044 192.581ZM209.258 177.538C210.662 179.062 211.986 180.667 213.216 182.325C210.568 182.205 207.907 182.205 205.26 182.325C206.57 180.6 207.921 178.995 209.258 177.538ZM193.747 169.341C195.993 168.031 200.981 169.903 206.236 174.556C206.57 174.85 206.904 175.171 207.252 175.492C205.18 177.725 203.267 180.105 201.516 182.592C198.494 182.86 195.499 183.328 192.53 183.983C192.356 183.301 192.209 182.606 192.062 181.91C190.805 175.439 191.634 170.558 193.747 169.341ZM190.471 204.589C189.909 204.428 189.361 204.254 188.813 204.067C185.965 203.171 182.729 201.754 180.389 199.895C179.038 198.959 178.129 197.515 177.875 195.897C177.875 193.45 182.1 190.321 188.198 188.195C188.96 187.928 189.735 187.687 190.511 187.46C191.42 190.361 192.517 193.209 193.787 195.964C192.503 198.759 191.393 201.647 190.471 204.589ZM206.062 217.693C203.856 219.712 201.302 221.316 198.52 222.413C197.036 223.121 195.325 223.188 193.8 222.587C191.674 221.356 190.792 216.636 191.995 210.285C192.142 209.536 192.303 208.787 192.49 208.052C195.485 208.694 198.507 209.135 201.569 209.362C203.334 211.863 205.273 214.256 207.346 216.503C206.918 216.917 206.49 217.318 206.062 217.693ZM209.338 214.443C207.974 212.972 206.61 211.341 205.286 209.589C206.57 209.643 207.894 209.67 209.231 209.67C210.608 209.67 211.959 209.643 213.296 209.576C212.066 211.274 210.742 212.892 209.338 214.443ZM226.815 218.455C226.694 220.086 225.892 221.61 224.608 222.64C222.482 223.87 217.949 222.266 213.055 218.067C212.494 217.586 211.932 217.064 211.357 216.529C213.403 214.269 215.288 211.876 217 209.362C220.062 209.108 223.111 208.64 226.119 207.958C226.253 208.506 226.373 209.055 226.48 209.589C227.136 212.478 227.242 215.486 226.815 218.455ZM229.248 204.08C228.874 204.201 228.499 204.321 228.112 204.428C227.176 201.513 226.026 198.665 224.702 195.897C225.986 193.169 227.069 190.361 227.978 187.486C228.673 187.687 229.342 187.901 229.984 188.115C236.215 190.254 240.587 193.437 240.587 195.87C240.587 198.491 235.921 201.874 229.248 204.08ZM209.231 202.075C212.614 202.075 215.355 199.334 215.355 195.951C215.355 192.568 212.614 189.826 209.231 189.826C205.848 189.826 203.107 192.568 203.107 195.951C203.107 199.334 205.848 202.075 209.231 202.075Z" fill="#589B63"/>
</svg>
